<mxfile host="app.diagrams.net" agent="Mozilla/5.0 (Windows NT 10.0; Win64; x64) AppleWebKit/537.36 (KHTML, like Gecko) Chrome/136.0.0.0 Safari/537.36" version="27.0.6">
  <diagram id="prtHgNgQTEPvFCAcTncT" name="Page-1">
    <mxGraphModel dx="1042" dy="534" grid="1" gridSize="10" guides="1" tooltips="1" connect="1" arrows="1" fold="1" page="1" pageScale="1" pageWidth="827" pageHeight="1169" math="0" shadow="0">
      <root>
        <mxCell id="0" />
        <mxCell id="1" parent="0" />
        <mxCell id="dNxyNK7c78bLwvsdeMH5-11" value="Team" style="swimlane;html=1;startSize=20;horizontal=1;containerType=tree;glass=0;" parent="1" vertex="1">
          <mxGeometry x="10" y="80" width="800" height="290" as="geometry" />
        </mxCell>
        <UserObject label="Zeynep Ekinci&lt;br&gt;&lt;i style=&quot;color: gray;&quot;&gt;Proje Yöneticisi&lt;/i&gt;" name="Zeynep Ekinci" position="Proje Yöneticisi" placeholders="1" id="dNxyNK7c78bLwvsdeMH5-12">
          <mxCell style="label;image=https://cdn3.iconfinder.com/data/icons/user-avatars-1/512/users-3-128.png;whiteSpace=wrap;html=1;rounded=0;glass=0;treeMoving=1;treeFolding=1;" parent="dNxyNK7c78bLwvsdeMH5-11" vertex="1">
            <mxGeometry x="310" y="50" width="180" height="70" as="geometry" />
          </mxCell>
        </UserObject>
        <mxCell id="dNxyNK7c78bLwvsdeMH5-15" value="" style="endArrow=blockThin;endFill=1;fontSize=11;edgeStyle=elbowEdgeStyle;elbow=vertical;rounded=0;" parent="dNxyNK7c78bLwvsdeMH5-11" source="dNxyNK7c78bLwvsdeMH5-12" target="dNxyNK7c78bLwvsdeMH5-16" edge="1">
          <mxGeometry relative="1" as="geometry" />
        </mxCell>
        <UserObject label="%name%&lt;br&gt;&lt;i style=&quot;color: gray;&quot;&gt;%position%&lt;/i&gt;" name="Emirhan Yusuf Toptaş" position="Sistem Analisti" placeholders="1" id="dNxyNK7c78bLwvsdeMH5-16">
          <mxCell style="label;image=https://cdn3.iconfinder.com/data/icons/user-avatars-1/512/users-9-2-128.png;whiteSpace=wrap;html=1;rounded=0;glass=0;treeFolding=1;treeMoving=1;" parent="dNxyNK7c78bLwvsdeMH5-11" vertex="1">
            <mxGeometry x="610" y="180" width="180" height="80" as="geometry" />
          </mxCell>
        </UserObject>
        <UserObject label="%name%&lt;br&gt;&lt;i style=&quot;color: gray;&quot;&gt;%position%&lt;/i&gt;" name="Ahmet Mahir Demirelli" position="Yazılım Geliştirici" placeholders="1" id="SqTC_0e_bL2jgs1I1lI_-1">
          <mxCell style="label;image=https://cdn3.iconfinder.com/data/icons/user-avatars-1/512/users-9-2-128.png;whiteSpace=wrap;html=1;rounded=0;glass=0;treeFolding=1;treeMoving=1;" parent="dNxyNK7c78bLwvsdeMH5-11" vertex="1">
            <mxGeometry x="410" y="180" width="180" height="80" as="geometry" />
          </mxCell>
        </UserObject>
        <mxCell id="SqTC_0e_bL2jgs1I1lI_-6" value="" style="endArrow=blockThin;endFill=1;fontSize=11;edgeStyle=elbowEdgeStyle;elbow=vertical;rounded=0;exitX=0.5;exitY=1;exitDx=0;exitDy=0;entryX=0.5;entryY=0;entryDx=0;entryDy=0;" parent="dNxyNK7c78bLwvsdeMH5-11" source="dNxyNK7c78bLwvsdeMH5-12" target="SqTC_0e_bL2jgs1I1lI_-1" edge="1">
          <mxGeometry relative="1" as="geometry">
            <mxPoint x="390" y="120" as="sourcePoint" />
            <mxPoint x="740" y="180" as="targetPoint" />
          </mxGeometry>
        </mxCell>
        <UserObject label="%name%&lt;br&gt;&lt;i style=&quot;color: gray;&quot;&gt;%position%&lt;/i&gt;" name="İrem Çelik" position="Yazılım Geliştirici" placeholders="1" id="SqTC_0e_bL2jgs1I1lI_-7">
          <mxCell style="label;image=https://cdn3.iconfinder.com/data/icons/user-avatars-1/512/users-3-128.png;whiteSpace=wrap;html=1;rounded=0;glass=0;treeFolding=1;treeMoving=1;" parent="dNxyNK7c78bLwvsdeMH5-11" vertex="1">
            <mxGeometry x="210" y="180" width="180" height="80" as="geometry" />
          </mxCell>
        </UserObject>
        <UserObject label="%name%&lt;br&gt;&lt;i style=&quot;color: gray;&quot;&gt;%position%&lt;/i&gt;" name="Sude Elitok" position="Yazılım Geliştirici" placeholders="1" id="SqTC_0e_bL2jgs1I1lI_-8">
          <mxCell style="label;image=https://cdn3.iconfinder.com/data/icons/user-avatars-1/512/users-3-128.png;whiteSpace=wrap;html=1;rounded=0;glass=0;treeFolding=1;treeMoving=1;" parent="dNxyNK7c78bLwvsdeMH5-11" vertex="1">
            <mxGeometry x="10" y="180" width="180" height="80" as="geometry" />
          </mxCell>
        </UserObject>
        <mxCell id="SqTC_0e_bL2jgs1I1lI_-9" value="" style="endArrow=blockThin;endFill=1;fontSize=11;edgeStyle=elbowEdgeStyle;elbow=vertical;rounded=0;exitX=0.5;exitY=1;exitDx=0;exitDy=0;entryX=0.5;entryY=0;entryDx=0;entryDy=0;" parent="dNxyNK7c78bLwvsdeMH5-11" source="dNxyNK7c78bLwvsdeMH5-12" target="SqTC_0e_bL2jgs1I1lI_-7" edge="1">
          <mxGeometry relative="1" as="geometry">
            <mxPoint x="390" y="130" as="sourcePoint" />
            <mxPoint x="490" y="190" as="targetPoint" />
          </mxGeometry>
        </mxCell>
        <mxCell id="SqTC_0e_bL2jgs1I1lI_-10" value="" style="endArrow=blockThin;endFill=1;fontSize=11;edgeStyle=elbowEdgeStyle;elbow=vertical;rounded=0;exitX=0.5;exitY=1;exitDx=0;exitDy=0;" parent="dNxyNK7c78bLwvsdeMH5-11" source="dNxyNK7c78bLwvsdeMH5-12" target="SqTC_0e_bL2jgs1I1lI_-8" edge="1">
          <mxGeometry relative="1" as="geometry">
            <mxPoint x="320" y="300" as="sourcePoint" />
            <mxPoint x="420" y="360" as="targetPoint" />
          </mxGeometry>
        </mxCell>
      </root>
    </mxGraphModel>
  </diagram>
</mxfile>
